<svg xmlns="http://www.w3.org/2000/svg" width="75" height="75" viewBox="0 0 75 75" fill="none"><path d="M72 37.5C72 18.4462 56.5538 3 37.5 3C18.4462 3 3 18.4462 3 37.5C3 56.5538 18.4462 72 37.5 72V75C16.7893 75 0 58.2107 0 37.5C0 16.7893 16.7893 0 37.5 0C58.2107 0 75 16.7893 75 37.5C75 58.2107 58.2107 75 37.5 75V72C56.5538 72 72 56.5538 72 37.5Z" fill="white"></path><path d="M63.5921 28.2401C63.2721 27.6534 62.8321 27.2068 62.2721 26.9001C61.7121 26.5934 61.0588 26.4401 60.3121 26.4401C59.4855 26.4401 58.7521 26.6268 58.1121 27.0001C57.4721 27.3734 56.9721 27.9068 56.6121 28.6001C56.2521 29.2934 56.0721 30.0934 56.0721 31.0001C56.0721 31.9334 56.2521 32.7468 56.6121 33.4401C56.9855 34.1334 57.4988 34.6668 58.1521 35.0401C58.8055 35.4134 59.5655 35.6001 60.4321 35.6001C61.4988 35.6001 62.3721 35.3201 63.0521 34.7601C63.7321 34.1868 64.1788 33.3934 64.3921 32.3801H59.5921V30.2401H67.1521V32.6801C66.9655 33.6534 66.5655 34.5534 65.9521 35.3801C65.3388 36.2068 64.5455 36.8734 63.5721 37.3801C62.6121 37.8734 61.5321 38.1201 60.3321 38.1201C58.9855 38.1201 57.7655 37.8201 56.6721 37.2201C55.5921 36.6068 54.7388 35.7601 54.1121 34.6801C53.4988 33.6001 53.1921 32.3734 53.1921 31.0001C53.1921 29.6268 53.4988 28.4001 54.1121 27.3201C54.7388 26.2268 55.5921 25.3801 56.6721 24.7801C57.7655 24.1668 58.9788 23.8601 60.3121 23.8601C61.8855 23.8601 63.2521 24.2468 64.4121 25.0201C65.5721 25.7801 66.3721 26.8534 66.8121 28.2401H63.5921Z" fill="white"></path><path d="M48.4904 38L43.4104 31.78V38H40.6104V24.04H43.4104V30.3L48.4904 24.04H51.8703L46.1104 30.96L52.0303 38H48.4904Z" fill="white"></path><path d="M27.9387 26V23.42H32.7587V38H29.8787V26H27.9387Z" fill="white"></path><path d="M16.346 27.2601C16.4127 25.9267 16.8793 24.9001 17.746 24.1801C18.626 23.4467 19.7793 23.0801 21.206 23.0801C22.1793 23.0801 23.0127 23.2534 23.706 23.6001C24.3993 23.9334 24.9193 24.3934 25.266 24.9801C25.626 25.5534 25.806 26.2067 25.806 26.9401C25.806 27.7801 25.586 28.4934 25.146 29.0801C24.7193 29.6534 24.206 30.0401 23.606 30.2401V30.3201C24.3793 30.5601 24.9793 30.9867 25.406 31.6001C25.846 32.2134 26.066 33.0001 26.066 33.9601C26.066 34.7601 25.8793 35.4734 25.506 36.1001C25.146 36.7267 24.606 37.2201 23.886 37.5801C23.1793 37.9267 22.326 38.1001 21.326 38.1001C19.8193 38.1001 18.5927 37.7201 17.646 36.9601C16.6993 36.2001 16.1993 35.0801 16.146 33.6001H18.866C18.8927 34.2534 19.1127 34.7801 19.526 35.1801C19.9527 35.5667 20.5327 35.7601 21.266 35.7601C21.946 35.7601 22.466 35.5734 22.826 35.2001C23.1993 34.8134 23.386 34.3201 23.386 33.7201C23.386 32.9201 23.1327 32.3467 22.626 32.0001C22.1193 31.6534 21.3327 31.4801 20.266 31.4801H19.686V29.1801H20.266C22.1593 29.1801 23.106 28.5467 23.106 27.2801C23.106 26.7067 22.9327 26.2601 22.586 25.9401C22.2527 25.6201 21.766 25.4601 21.126 25.4601C20.4993 25.4601 20.0127 25.6334 19.666 25.9801C19.3327 26.3134 19.1393 26.7401 19.086 27.2601H16.346Z" fill="white"></path><path d="M8.71997 26V23.42H13.54V38H10.66V26H8.71997Z" fill="white"></path><path d="M54.86 56.1401C53.5533 56.1401 52.3533 55.8334 51.26 55.2201C50.1666 54.6068 49.3 53.7601 48.66 52.6801C48.02 51.5868 47.7 50.3534 47.7 48.9801C47.7 47.6201 48.02 46.4001 48.66 45.3201C49.3 44.2268 50.1666 43.3734 51.26 42.7601C52.3533 42.1468 53.5533 41.8401 54.86 41.8401C56.18 41.8401 57.3799 42.1468 58.4599 42.7601C59.5533 43.3734 60.4133 44.2268 61.04 45.3201C61.68 46.4001 62 47.6201 62 48.9801C62 50.3534 61.68 51.5868 61.04 52.6801C60.4133 53.7601 59.5533 54.6068 58.4599 55.2201C57.3666 55.8334 56.1666 56.1401 54.86 56.1401ZM54.86 53.6401C55.7 53.6401 56.44 53.4534 57.08 53.0801C57.72 52.6934 58.22 52.1468 58.58 51.4401C58.94 50.7334 59.1199 49.9134 59.1199 48.9801C59.1199 48.0468 58.94 47.2334 58.58 46.5401C58.22 45.8334 57.72 45.2934 57.08 44.9201C56.44 44.5468 55.7 44.3601 54.86 44.3601C54.02 44.3601 53.2733 44.5468 52.6199 44.9201C51.9799 45.2934 51.4799 45.8334 51.1199 46.5401C50.7599 47.2334 50.58 48.0468 50.58 48.9801C50.58 49.9134 50.7599 50.7334 51.1199 51.4401C51.4799 52.1468 51.9799 52.6934 52.6199 53.0801C53.2733 53.4534 54.02 53.6401 54.86 53.6401Z" fill="white"></path><path d="M41.0123 56.1401C40.0389 56.1401 39.1589 55.9734 38.3723 55.6401C37.5989 55.3068 36.9856 54.8268 36.5323 54.2001C36.0789 53.5734 35.8456 52.8334 35.8323 51.9801H38.8323C38.8723 52.5534 39.0723 53.0068 39.4323 53.3401C39.8056 53.6734 40.3123 53.8401 40.9523 53.8401C41.6056 53.8401 42.1189 53.6868 42.4923 53.3801C42.8656 53.0601 43.0523 52.6468 43.0523 52.1401C43.0523 51.7268 42.9256 51.3868 42.6723 51.1201C42.4189 50.8534 42.0989 50.6468 41.7123 50.5001C41.3389 50.3401 40.8189 50.1668 40.1523 49.9801C39.2456 49.7134 38.5056 49.4534 37.9323 49.2001C37.3723 48.9334 36.8856 48.5401 36.4723 48.0201C36.0723 47.4868 35.8723 46.7801 35.8723 45.9001C35.8723 45.0734 36.0789 44.3534 36.4923 43.7401C36.9056 43.1268 37.4856 42.6601 38.2323 42.3401C38.9789 42.0068 39.8323 41.8401 40.7923 41.8401C42.2323 41.8401 43.3989 42.1934 44.2923 42.9001C45.1989 43.5934 45.6989 44.5668 45.7923 45.8201H42.7123C42.6856 45.3401 42.4789 44.9468 42.0923 44.6401C41.7189 44.3201 41.2189 44.1601 40.5923 44.1601C40.0456 44.1601 39.6056 44.3001 39.2723 44.5801C38.9523 44.8601 38.7923 45.2668 38.7923 45.8001C38.7923 46.1734 38.9123 46.4868 39.1523 46.7401C39.4056 46.9801 39.7123 47.1801 40.0723 47.3401C40.4456 47.4868 40.9656 47.6601 41.6323 47.8601C42.5389 48.1268 43.2789 48.3934 43.8523 48.6601C44.4256 48.9268 44.9189 49.3268 45.3323 49.8601C45.7456 50.3934 45.9523 51.0934 45.9523 51.9601C45.9523 52.7068 45.7589 53.4001 45.3723 54.0401C44.9856 54.6801 44.4189 55.1934 43.6723 55.5801C42.9256 55.9534 42.0389 56.1401 41.0123 56.1401Z" fill="white"></path><path d="M28.3479 44.3V47.8H33.0479V50.02H28.3479V53.72H33.6479V56H25.5479V42.02H33.6479V44.3H28.3479Z" fill="white"></path><path d="M23.5599 46.36C23.5599 47.1067 23.3799 47.8067 23.0199 48.46C22.6732 49.1134 22.1199 49.64 21.3599 50.04C20.6132 50.44 19.6665 50.64 18.5199 50.64H16.1799V56H13.3799V42.04H18.5199C19.5999 42.04 20.5199 42.2267 21.2799 42.6C22.0399 42.9734 22.6065 43.4867 22.9799 44.14C23.3665 44.7934 23.5599 45.5334 23.5599 46.36ZM18.3999 48.38C19.1732 48.38 19.7466 48.2067 20.1199 47.86C20.4932 47.5 20.6799 47 20.6799 46.36C20.6799 45 19.9199 44.32 18.3999 44.32H16.1799V48.38H18.3999Z" fill="white"></path></svg>