<svg xmlns="http://www.w3.org/2000/svg" width="75" height="75" viewBox="0 0 75 75" fill="none"><path d="M72 37.5C72 18.4462 56.5538 3 37.5 3C18.4462 3 3 18.4462 3 37.5C3 56.5538 18.4462 72 37.5 72V75C16.7893 75 0 58.2107 0 37.5C0 16.7893 16.7893 0 37.5 0C58.2107 0 75 16.7893 75 37.5C75 58.2107 58.2107 75 37.5 75V72C56.5538 72 72 56.5538 72 37.5Z" fill="white"></path><path d="M50.9773 23.84H44.4973V27.26C44.7773 26.9133 45.1773 26.6333 45.6973 26.42C46.2173 26.1933 46.7706 26.08 47.3573 26.08C48.4239 26.08 49.2973 26.3133 49.9773 26.78C50.6573 27.2467 51.1506 27.8467 51.4573 28.58C51.7639 29.3 51.9173 30.0733 51.9173 30.9C51.9173 32.4333 51.4773 33.6667 50.5973 34.6C49.7306 35.5333 48.4906 36 46.8773 36C45.3573 36 44.1439 35.62 43.2373 34.86C42.3306 34.1 41.8173 33.1067 41.6973 31.88H44.4173C44.5373 32.4133 44.8039 32.84 45.2173 33.16C45.6439 33.48 46.1839 33.64 46.8373 33.64C47.6239 33.64 48.2173 33.3933 48.6173 32.9C49.0173 32.4067 49.2173 31.7533 49.2173 30.94C49.2173 30.1133 49.0106 29.4867 48.5973 29.06C48.1973 28.62 47.6039 28.4 46.8173 28.4C46.2573 28.4 45.7906 28.54 45.4173 28.82C45.0439 29.1 44.7773 29.4733 44.6173 29.94H41.9373V21.38H50.9773V23.84Z" fill="white"></path><path d="M38.1062 23.84H31.6262V27.26C31.9062 26.9133 32.3062 26.6333 32.8262 26.42C33.3462 26.1933 33.8995 26.08 34.4862 26.08C35.5528 26.08 36.4262 26.3133 37.1062 26.78C37.7862 27.2467 38.2795 27.8467 38.5862 28.58C38.8928 29.3 39.0462 30.0733 39.0462 30.9C39.0462 32.4333 38.6062 33.6667 37.7262 34.6C36.8595 35.5333 35.6195 36 34.0062 36C32.4862 36 31.2728 35.62 30.3662 34.86C29.4595 34.1 28.9462 33.1067 28.8262 31.88H31.5462C31.6662 32.4133 31.9328 32.84 32.3462 33.16C32.7728 33.48 33.3128 33.64 33.9662 33.64C34.7528 33.64 35.3462 33.3933 35.7462 32.9C36.1462 32.4067 36.3462 31.7533 36.3462 30.94C36.3462 30.1133 36.1395 29.4867 35.7262 29.06C35.3262 28.62 34.7328 28.4 33.9462 28.4C33.3862 28.4 32.9195 28.54 32.5462 28.82C32.1728 29.1 31.9062 29.4733 31.7462 29.94H29.0662V21.38H38.1062V23.84Z" fill="white"></path><path d="M20.72 23.9999V21.4199H25.54V35.9999H22.66V23.9999H20.72Z" fill="white"></path><path d="M37.0515 47C37.0515 45.6267 37.3582 44.4 37.9715 43.32C38.5982 42.2267 39.4448 41.38 40.5115 40.78C41.5915 40.1667 42.7982 39.86 44.1315 39.86C45.6915 39.86 47.0582 40.26 48.2315 41.06C49.4048 41.86 50.2248 42.9667 50.6915 44.38H47.4715C47.1515 43.7133 46.6982 43.2133 46.1115 42.88C45.5382 42.5467 44.8715 42.38 44.1115 42.38C43.2982 42.38 42.5715 42.5733 41.9315 42.96C41.3048 43.3333 40.8115 43.8667 40.4515 44.56C40.1048 45.2533 39.9315 46.0667 39.9315 47C39.9315 47.92 40.1048 48.7333 40.4515 49.44C40.8115 50.1333 41.3048 50.6733 41.9315 51.06C42.5715 51.4333 43.2982 51.62 44.1115 51.62C44.8715 51.62 45.5382 51.4533 46.1115 51.12C46.6982 50.7733 47.1515 50.2667 47.4715 49.6H50.6915C50.2248 51.0267 49.4048 52.14 48.2315 52.94C47.0715 53.7267 45.7048 54.12 44.1315 54.12C42.7982 54.12 41.5915 53.82 40.5115 53.22C39.4448 52.6067 38.5982 51.76 37.9715 50.68C37.3582 49.6 37.0515 48.3733 37.0515 47Z" fill="white"></path><path d="M21.7 47C21.7 45.6267 22.0066 44.4 22.62 43.32C23.2466 42.2267 24.0933 41.38 25.16 40.78C26.24 40.1667 27.4466 39.86 28.78 39.86C30.34 39.86 31.7066 40.26 32.88 41.06C34.0533 41.86 34.8733 42.9667 35.34 44.38H32.12C31.8 43.7133 31.3466 43.2133 30.76 42.88C30.1866 42.5467 29.52 42.38 28.76 42.38C27.9466 42.38 27.22 42.5733 26.58 42.96C25.9533 43.3333 25.46 43.8667 25.1 44.56C24.7533 45.2533 24.58 46.0667 24.58 47C24.58 47.92 24.7533 48.7333 25.1 49.44C25.46 50.1333 25.9533 50.6733 26.58 51.06C27.22 51.4333 27.9466 51.62 28.76 51.62C29.52 51.62 30.1866 51.4533 30.76 51.12C31.3466 50.7733 31.8 50.2667 32.12 49.6H35.34C34.8733 51.0267 34.0533 52.14 32.88 52.94C31.72 53.7267 30.3533 54.12 28.78 54.12C27.4466 54.12 26.24 53.82 25.16 53.22C24.0933 52.6067 23.2466 51.76 22.62 50.68C22.0066 49.6 21.7 48.3733 21.7 47Z" fill="white"></path></svg>