<svg xmlns="http://www.w3.org/2000/svg" width="75" height="75" viewBox="0 0 75 75" fill="none"><path d="M72 37.5C72 18.4462 56.5538 3 37.5 3C18.4462 3 3 18.4462 3 37.5C3 56.5538 18.4462 72 37.5 72V75C16.7893 75 0 58.2107 0 37.5C0 16.7893 16.7893 0 37.5 0C58.2107 0 75 16.7893 75 37.5C75 58.2107 58.2107 75 37.5 75V72C56.5538 72 72 56.5538 72 37.5Z" fill="white"></path><path d="M51.7708 28.52C51.7708 26.2133 52.1841 24.4067 53.0107 23.1C53.8507 21.7933 55.2374 21.14 57.1707 21.14C59.1041 21.14 60.4841 21.7933 61.3108 23.1C62.1508 24.4067 62.5708 26.2133 62.5708 28.52C62.5708 30.84 62.1508 32.66 61.3108 33.98C60.4841 35.3 59.1041 35.96 57.1707 35.96C55.2374 35.96 53.8507 35.3 53.0107 33.98C52.1841 32.66 51.7708 30.84 51.7708 28.52ZM59.8107 28.52C59.8107 27.5333 59.7441 26.7067 59.6108 26.04C59.4908 25.36 59.2374 24.8067 58.8507 24.38C58.4774 23.9533 57.9174 23.74 57.1707 23.74C56.4241 23.74 55.8574 23.9533 55.4707 24.38C55.0974 24.8067 54.8441 25.36 54.7108 26.04C54.5908 26.7067 54.5308 27.5333 54.5308 28.52C54.5308 29.5333 54.5908 30.3867 54.7108 31.08C54.8308 31.76 55.0841 32.3133 55.4707 32.74C55.8574 33.1533 56.4241 33.36 57.1707 33.36C57.9174 33.36 58.4841 33.1533 58.8708 32.74C59.2574 32.3133 59.5108 31.76 59.6308 31.08C59.7508 30.3867 59.8107 29.5333 59.8107 28.52Z" fill="white"></path><path d="M38.8411 28.52C38.8411 26.2133 39.2544 24.4067 40.0811 23.1C40.9211 21.7933 42.3077 21.14 44.2411 21.14C46.1744 21.14 47.5544 21.7933 48.3811 23.1C49.2211 24.4067 49.6411 26.2133 49.6411 28.52C49.6411 30.84 49.2211 32.66 48.3811 33.98C47.5544 35.3 46.1744 35.96 44.2411 35.96C42.3077 35.96 40.9211 35.3 40.0811 33.98C39.2544 32.66 38.8411 30.84 38.8411 28.52ZM46.8811 28.52C46.8811 27.5333 46.8144 26.7067 46.6811 26.04C46.5611 25.36 46.3077 24.8067 45.9211 24.38C45.5477 23.9533 44.9877 23.74 44.2411 23.74C43.4944 23.74 42.9277 23.9533 42.5411 24.38C42.1677 24.8067 41.9144 25.36 41.7811 26.04C41.6611 26.7067 41.6011 27.5333 41.6011 28.52C41.6011 29.5333 41.6611 30.3867 41.7811 31.08C41.9011 31.76 42.1544 32.3133 42.5411 32.74C42.9277 33.1533 43.4944 33.36 44.2411 33.36C44.9877 33.36 45.5544 33.1533 45.9411 32.74C46.3277 32.3133 46.5811 31.76 46.7011 31.08C46.8211 30.3867 46.8811 29.5333 46.8811 28.52Z" fill="white"></path><path d="M25.9114 28.52C25.9114 26.2133 26.3247 24.4067 27.1514 23.1C27.9914 21.7933 29.378 21.14 31.3114 21.14C33.2447 21.14 34.6247 21.7933 35.4514 23.1C36.2914 24.4067 36.7114 26.2133 36.7114 28.52C36.7114 30.84 36.2914 32.66 35.4514 33.98C34.6247 35.3 33.2447 35.96 31.3114 35.96C29.378 35.96 27.9914 35.3 27.1514 33.98C26.3247 32.66 25.9114 30.84 25.9114 28.52ZM33.9514 28.52C33.9514 27.5333 33.8847 26.7067 33.7514 26.04C33.6314 25.36 33.378 24.8067 32.9914 24.38C32.618 23.9533 32.058 23.74 31.3114 23.74C30.5647 23.74 29.998 23.9533 29.6114 24.38C29.238 24.8067 28.9847 25.36 28.8514 26.04C28.7314 26.7067 28.6714 27.5333 28.6714 28.52C28.6714 29.5333 28.7314 30.3867 28.8514 31.08C28.9714 31.76 29.2247 32.3133 29.6114 32.74C29.998 33.1533 30.5647 33.36 31.3114 33.36C32.058 33.36 32.6247 33.1533 33.0114 32.74C33.398 32.3133 33.6514 31.76 33.7714 31.08C33.8914 30.3867 33.9514 29.5333 33.9514 28.52Z" fill="white"></path><path d="M15.4999 28.28C14.1666 27.5867 13.4999 26.5133 13.4999 25.06C13.4999 24.34 13.6799 23.6867 14.0399 23.1C14.4132 22.5 14.9666 22.0267 15.6999 21.68C16.4466 21.32 17.3532 21.14 18.4199 21.14C19.4866 21.14 20.3866 21.32 21.1199 21.68C21.8666 22.0267 22.4199 22.5 22.7799 23.1C23.1532 23.6867 23.3399 24.34 23.3399 25.06C23.3399 25.7933 23.1599 26.44 22.7999 27C22.4399 27.5467 21.9599 27.9733 21.3599 28.28C22.0932 28.6 22.6666 29.0667 23.0799 29.68C23.4932 30.2933 23.6999 31.02 23.6999 31.86C23.6999 32.7667 23.4666 33.56 22.9999 34.24C22.5466 34.9067 21.9199 35.42 21.1199 35.78C20.3199 36.14 19.4199 36.32 18.4199 36.32C17.4199 36.32 16.5199 36.14 15.7199 35.78C14.9332 35.42 14.3066 34.9067 13.8399 34.24C13.3866 33.56 13.1599 32.7667 13.1599 31.86C13.1599 31.02 13.3666 30.2933 13.7799 29.68C14.1932 29.0533 14.7666 28.5867 15.4999 28.28ZM20.6199 25.46C20.6199 24.8067 20.4199 24.3 20.0199 23.94C19.6332 23.58 19.0999 23.4 18.4199 23.4C17.7532 23.4 17.2199 23.58 16.8199 23.94C16.4332 24.3 16.2399 24.8133 16.2399 25.48C16.2399 26.08 16.4399 26.56 16.8399 26.92C17.2532 27.28 17.7799 27.46 18.4199 27.46C19.0599 27.46 19.5866 27.28 19.9999 26.92C20.4132 26.5467 20.6199 26.06 20.6199 25.46ZM18.4199 29.5C17.6599 29.5 17.0399 29.6933 16.5599 30.08C16.0932 30.4667 15.8599 31.02 15.8599 31.74C15.8599 32.4067 16.0866 32.9533 16.5399 33.38C17.0066 33.7933 17.6332 34 18.4199 34C19.2066 34 19.8266 33.7867 20.2799 33.36C20.7332 32.9333 20.9599 32.3933 20.9599 31.74C20.9599 31.0333 20.7266 30.4867 20.2599 30.1C19.7932 29.7 19.1799 29.5 18.4199 29.5Z" fill="white"></path><path d="M57.5804 40.04V54H54.7804V44.92L51.0404 54H48.9203L45.1604 44.92V54H42.3604V40.04H45.5403L49.9804 50.42L54.4204 40.04H57.5804Z" fill="white"></path><path d="M40.3724 44.36C40.3724 45.1067 40.1924 45.8067 39.8324 46.46C39.4857 47.1134 38.9324 47.64 38.1724 48.04C37.4257 48.44 36.4791 48.64 35.3324 48.64H32.9924V54H30.1924V40.04H35.3324C36.4124 40.04 37.3324 40.2267 38.0924 40.6C38.8524 40.9734 39.419 41.4867 39.7924 42.14C40.179 42.7934 40.3724 43.5334 40.3724 44.36ZM35.2124 46.38C35.9857 46.38 36.5591 46.2067 36.9324 45.86C37.3057 45.5 37.4924 45 37.4924 44.36C37.4924 43 36.7324 42.32 35.2124 42.32H32.9924V46.38H35.2124Z" fill="white"></path><path d="M24.5799 54L21.4999 48.56H20.1799V54H17.3799V40.04H22.6199C23.6999 40.04 24.6199 40.2334 25.3799 40.62C26.1399 40.9934 26.7065 41.5067 27.0799 42.16C27.4665 42.8 27.6599 43.52 27.6599 44.32C27.6599 45.24 27.3932 46.0734 26.8599 46.82C26.3265 47.5534 25.5332 48.06 24.4799 48.34L27.8199 54H24.5799ZM20.1799 46.46H22.5199C23.2799 46.46 23.8465 46.28 24.2199 45.92C24.5932 45.5467 24.7799 45.0334 24.7799 44.38C24.7799 43.74 24.5932 43.2467 24.2199 42.9C23.8465 42.54 23.2799 42.36 22.5199 42.36H20.1799V46.46Z" fill="white"></path></svg>