<svg xmlns="http://www.w3.org/2000/svg" width="75" height="75" viewBox="0 0 75 75" fill="none"><path d="M72 37.5C72 18.4462 56.5538 3 37.5 3C18.4462 3 3 18.4462 3 37.5C3 56.5538 18.4462 72 37.5 72V75C16.7893 75 0 58.2107 0 37.5C0 16.7893 16.7893 0 37.5 0C58.2107 0 75 16.7893 75 37.5C75 58.2107 58.2107 75 37.5 75V72C56.5538 72 72 56.5538 72 37.5Z" fill="white"></path><path d="M40.1819 41.0909L43.021 49.6776H43.1329L45.9667 41.0909H48.14L44.2941 52H41.8545L38.0139 41.0909H40.1819Z" fill="white"></path><path d="M36.9128 44.7717H34.9206C34.8638 44.445 34.759 44.1556 34.6063 43.9034C34.4536 43.6477 34.2636 43.4311 34.0364 43.2536C33.8091 43.076 33.5499 42.9428 33.2587 42.8541C32.971 42.7617 32.6603 42.7156 32.3265 42.7156C31.7335 42.7156 31.2079 42.8647 30.7498 43.163C30.2917 43.4578 29.933 43.891 29.6738 44.4627C29.4146 45.0309 29.285 45.7252 29.285 46.5455C29.285 47.38 29.4146 48.0831 29.6738 48.6548C29.9366 49.223 30.2953 49.6527 30.7498 49.9439C31.2079 50.2315 31.7317 50.3754 32.3212 50.3754C32.6479 50.3754 32.9533 50.3328 33.2374 50.2475C33.525 50.1587 33.7825 50.0291 34.0097 49.8587C34.2406 49.6882 34.4341 49.4787 34.5904 49.2301C34.7502 48.9815 34.8602 48.6975 34.9206 48.3779L36.9128 48.3885C36.8382 48.907 36.6766 49.3935 36.4281 49.848C36.183 50.3026 35.8617 50.7038 35.4639 51.0519C35.0662 51.3963 34.601 51.6662 34.0683 51.8615C33.5357 52.0533 32.9444 52.1492 32.2945 52.1492C31.3357 52.1492 30.4799 51.9272 29.7271 51.4833C28.9742 51.0394 28.3812 50.3984 27.948 49.5604C27.5147 48.7223 27.2981 47.7173 27.2981 46.5455C27.2981 45.37 27.5165 44.3651 27.9533 43.5306C28.3901 42.6925 28.9849 42.0515 29.7377 41.6076C30.4906 41.1637 31.3428 40.9418 32.2945 40.9418C32.9018 40.9418 33.4664 41.027 33.9884 41.1975C34.5105 41.3679 34.9757 41.6183 35.384 41.9485C35.7924 42.2752 36.128 42.6765 36.3908 43.1524C36.6571 43.6247 36.8311 44.1644 36.9128 44.7717Z" fill="white"></path><path d="M45.7777 34.1492C45.0675 34.1492 44.4318 34.016 43.8707 33.7497C43.3097 33.4798 42.864 33.1105 42.5337 32.6417C42.207 32.173 42.033 31.6368 42.0117 31.0331H43.9293C43.9648 31.4805 44.1584 31.8463 44.5099 32.1304C44.8615 32.4109 45.2841 32.5512 45.7777 32.5512C46.1648 32.5512 46.5092 32.4624 46.8111 32.2848C47.1129 32.1073 47.3509 31.8605 47.5249 31.5444C47.6989 31.2284 47.7841 30.8679 47.7805 30.4631C47.7841 30.0512 47.6971 29.6854 47.5195 29.3658C47.342 29.0462 47.0987 28.7958 46.7898 28.6147C46.4808 28.4301 46.1257 28.3377 45.7244 28.3377C45.3977 28.3342 45.0763 28.3946 44.7603 28.5189C44.4442 28.6431 44.1939 28.8065 44.0092 29.0089L42.2248 28.7159L42.7947 23.0909H49.1229V24.7422H44.43L44.1158 27.6346H44.1797C44.3821 27.3967 44.668 27.1996 45.0373 27.0434C45.4066 26.8836 45.8114 26.8037 46.2518 26.8037C46.9123 26.8037 47.5018 26.9599 48.0202 27.2724C48.5387 27.5814 48.9471 28.0075 49.2454 28.5508C49.5437 29.0941 49.6928 29.7156 49.6928 30.4152C49.6928 31.136 49.5259 31.7788 49.1921 32.3434C48.8619 32.9045 48.402 33.3466 47.8125 33.6698C47.2266 33.9894 46.5483 34.1492 45.7777 34.1492Z" fill="white"></path><path d="M39.2152 23.0909V34H37.2389V25.0139H37.175L34.6235 26.6439V24.8328L37.3348 23.0909H39.2152Z" fill="white"></path><path d="M25.4616 34V32.5725L29.2489 28.8597C29.6111 28.494 29.913 28.169 30.1545 27.885C30.3959 27.6009 30.577 27.3257 30.6978 27.0593C30.8185 26.793 30.8789 26.5089 30.8789 26.207C30.8789 25.8626 30.8008 25.5678 30.6445 25.3228C30.4883 25.0742 30.2734 24.8825 30 24.7475C29.7265 24.6126 29.4158 24.5451 29.0678 24.5451C28.7091 24.5451 28.3949 24.6197 28.125 24.7688C27.8551 24.9144 27.6456 25.1222 27.4964 25.3921C27.3508 25.6619 27.278 25.9833 27.278 26.3562H25.3977C25.3977 25.6637 25.5557 25.0618 25.8718 24.5504C26.1878 24.0391 26.6228 23.6431 27.1768 23.3626C27.7344 23.082 28.3736 22.9418 29.0944 22.9418C29.826 22.9418 30.4687 23.0785 31.0227 23.3519C31.5767 23.6254 32.0064 24 32.3118 24.4759C32.6207 24.9517 32.7752 25.495 32.7752 26.1058C32.7752 26.5142 32.6971 26.9155 32.5408 27.3097C32.3846 27.7038 32.1094 28.1406 31.7152 28.62C31.3246 29.0994 30.7759 29.6801 30.0692 30.3619L28.1889 32.2742V32.3487H32.9403V34H25.4616Z" fill="white"></path></svg>