<svg xmlns="http://www.w3.org/2000/svg" width="75" height="75" viewBox="0 0 75 75" fill="none"><path d="M72 37.5C72 18.4462 56.5538 3 37.5 3C18.4462 3 3 18.4462 3 37.5C3 56.5538 18.4462 72 37.5 72V75C16.7893 75 0 58.2107 0 37.5C0 16.7893 16.7893 0 37.5 0C58.2107 0 75 16.7893 75 37.5C75 58.2107 58.2107 75 37.5 75V72C56.5538 72 72 56.5538 72 37.5Z" fill="white"></path><path d="M54.6307 52.2078C53.7536 52.2078 53.0008 51.9858 52.3722 51.5419C51.7472 51.0945 51.266 50.4499 50.9287 49.6083C50.5949 48.7631 50.428 47.7458 50.428 46.5561C50.4315 45.3665 50.6002 44.3544 50.934 43.5199C51.2714 42.6818 51.7526 42.0426 52.3776 41.6023C53.0061 41.1619 53.7572 40.9418 54.6307 40.9418C55.5043 40.9418 56.2554 41.1619 56.8839 41.6023C57.5125 42.0426 57.9937 42.6818 58.3275 43.5199C58.6648 44.358 58.8335 45.37 58.8335 46.5561C58.8335 47.7493 58.6648 48.7685 58.3275 49.6136C57.9937 50.4553 57.5125 51.098 56.8839 51.5419C56.2589 51.9858 55.5079 52.2078 54.6307 52.2078ZM54.6307 50.5405C55.3126 50.5405 55.8506 50.2049 56.2447 49.5337C56.6425 48.859 56.8413 47.8665 56.8413 46.5561C56.8413 45.6896 56.7508 44.9617 56.5697 44.3722C56.3886 43.7827 56.1329 43.3388 55.8026 43.0405C55.4724 42.7386 55.0817 42.5877 54.6307 42.5877C53.9525 42.5877 53.4163 42.9251 53.0221 43.5998C52.6279 44.271 52.429 45.2564 52.4255 46.5561C52.4219 47.4261 52.5089 48.1577 52.6865 48.7507C52.8676 49.3438 53.1233 49.7912 53.4535 50.0931C53.7838 50.3913 54.1762 50.5405 54.6307 50.5405Z" fill="white"></path><path d="M44.743 52.1492C43.976 52.1492 43.2942 52.0178 42.6976 51.755C42.1045 51.4922 41.6358 51.1264 41.2913 50.6577C40.9469 50.1889 40.764 49.6474 40.7427 49.033H42.7455C42.7633 49.3278 42.8609 49.5852 43.0385 49.8054C43.216 50.022 43.4522 50.1907 43.7469 50.3114C44.0417 50.4322 44.3719 50.4926 44.7377 50.4926C45.1283 50.4926 45.4746 50.4251 45.7764 50.2901C46.0783 50.1516 46.3144 49.9599 46.4849 49.7149C46.6553 49.4698 46.7388 49.1875 46.7352 48.8679C46.7388 48.5377 46.6535 48.2465 46.4795 47.9943C46.3055 47.7422 46.0534 47.5451 45.7231 47.4031C45.3964 47.261 45.0023 47.19 44.5406 47.19H43.5765V45.6666H44.5406C44.9206 45.6666 45.2526 45.6009 45.5367 45.4695C45.8244 45.3381 46.0498 45.1534 46.2132 44.9155C46.3766 44.674 46.4565 44.3953 46.4529 44.0792C46.4565 43.7703 46.3872 43.5021 46.2452 43.2749C46.1067 43.044 45.9096 42.8647 45.6539 42.7369C45.4018 42.609 45.1052 42.5451 44.7643 42.5451C44.4305 42.5451 44.1216 42.6055 43.8375 42.7262C43.5534 42.847 43.3244 43.0192 43.1503 43.2429C42.9763 43.4631 42.884 43.7259 42.8734 44.0313H40.9717C40.9859 43.4205 41.1617 42.8842 41.4991 42.4226C41.84 41.9574 42.2945 41.5952 42.8627 41.3359C43.4309 41.0732 44.0683 40.9418 44.775 40.9418C45.503 40.9418 46.1351 41.0785 46.6713 41.3519C47.2111 41.6218 47.6283 41.9858 47.9231 42.4439C48.2178 42.902 48.3652 43.408 48.3652 43.962C48.3687 44.5764 48.1876 45.0913 47.8219 45.5068C47.4597 45.9222 46.9838 46.1939 46.3943 46.3217V46.407C47.1614 46.5135 47.7491 46.7976 48.1574 47.2592C48.5694 47.7173 48.7736 48.2873 48.77 48.9691C48.77 49.5799 48.596 50.1268 48.248 50.6097C47.9035 51.0891 47.4277 51.4656 46.8204 51.739C46.2168 52.0124 45.5243 52.1492 44.743 52.1492Z" fill="white"></path><path d="M39.6187 40.5796L36.1031 53.6407H34.4146L37.9302 40.5796H39.6187Z" fill="white"></path><path d="M29.4447 52.1492C28.7345 52.1492 28.0988 52.016 27.5377 51.7497C26.9767 51.4798 26.531 51.1105 26.2007 50.6417C25.874 50.173 25.7 49.6368 25.6787 49.0331H27.5963C27.6318 49.4805 27.8254 49.8463 28.1769 50.1304C28.5285 50.4109 28.9511 50.5512 29.4447 50.5512C29.8318 50.5512 30.1762 50.4624 30.4781 50.2848C30.7799 50.1073 31.0178 49.8605 31.1919 49.5444C31.3659 49.2284 31.4511 48.8679 31.4475 48.4631C31.4511 48.0512 31.3641 47.6854 31.1865 47.3658C31.009 47.0462 30.7657 46.7958 30.4568 46.6147C30.1478 46.4301 29.7927 46.3377 29.3914 46.3377C29.0647 46.3342 28.7433 46.3946 28.4273 46.5189C28.1112 46.6431 27.8609 46.8065 27.6762 47.0089L25.8918 46.7159L26.4617 41.0909H32.7899V42.7422H28.097L27.7828 45.6346H27.8467C28.0491 45.3967 28.335 45.1996 28.7043 45.0434C29.0736 44.8836 29.4784 44.8037 29.9188 44.8037C30.5793 44.8037 31.1688 44.9599 31.6872 45.2724C32.2057 45.5814 32.6141 46.0075 32.9124 46.5508C33.2107 47.0941 33.3598 47.7156 33.3598 48.4152C33.3598 49.136 33.1929 49.7788 32.8591 50.3434C32.5289 50.9045 32.069 51.3466 31.4795 51.6698C30.8936 51.9894 30.2153 52.1492 29.4447 52.1492Z" fill="white"></path><path d="M16.3356 52V50.5725L20.1229 46.8597C20.4852 46.494 20.787 46.169 21.0285 45.885C21.27 45.6009 21.4511 45.3257 21.5718 45.0593C21.6925 44.793 21.7529 44.5089 21.7529 44.207C21.7529 43.8626 21.6748 43.5678 21.5185 43.3228C21.3623 43.0742 21.1474 42.8825 20.874 42.7475C20.6006 42.6126 20.2898 42.5451 19.9418 42.5451C19.5832 42.5451 19.2689 42.6197 18.999 42.7688C18.7291 42.9144 18.5196 43.1222 18.3705 43.3921C18.2249 43.6619 18.1521 43.9833 18.1521 44.3562H16.2717C16.2717 43.6637 16.4298 43.0618 16.7458 42.5504C17.0619 42.0391 17.4969 41.6431 18.0508 41.3626C18.6084 41.082 19.2476 40.9418 19.9685 40.9418C20.7 40.9418 21.3428 41.0785 21.8967 41.3519C22.4507 41.6254 22.8804 42 23.1858 42.4759C23.4947 42.9517 23.6492 43.495 23.6492 44.1058C23.6492 44.5142 23.5711 44.9155 23.4148 45.3097C23.2586 45.7038 22.9834 46.1406 22.5892 46.62C22.1986 47.0994 21.6499 47.6801 20.9432 48.3619L19.0629 50.2742V50.3487H23.8143V52H16.3356Z" fill="white"></path><path d="M43.5745 23.0909L45.9769 27.086H46.0621L48.4751 23.0909H50.7283L47.3671 28.5455L50.7816 34H48.4911L46.0621 30.0316H45.9769L43.5479 34H41.2681L44.7144 28.5455L41.3107 23.0909H43.5745Z" fill="white"></path><path d="M32.2698 34V23.0909H36.3607C37.1988 23.0909 37.9019 23.2472 38.4701 23.5597C39.0418 23.8722 39.4733 24.3019 39.7644 24.8488C40.0592 25.3921 40.2066 26.01 40.2066 26.7024C40.2066 27.402 40.0592 28.0235 39.7644 28.5668C39.4697 29.1101 39.0347 29.538 38.4594 29.8505C37.8841 30.1595 37.1757 30.314 36.3341 30.314H33.6228V28.6893H36.0677C36.5578 28.6893 36.9591 28.6041 37.2716 28.4336C37.5841 28.2632 37.8149 28.0288 37.964 27.7305C38.1167 27.4322 38.1931 27.0895 38.1931 26.7024C38.1931 26.3154 38.1167 25.9745 37.964 25.6797C37.8149 25.385 37.5823 25.1559 37.2662 24.9926C36.9537 24.8257 36.5507 24.7422 36.0571 24.7422H34.246V34H32.2698Z" fill="white"></path><path d="M30.1165 23.0909V34H28.3586L23.2184 26.5693H23.1278V34H21.1516V23.0909H22.9201L28.055 30.527H28.1509V23.0909H30.1165Z" fill="white"></path></svg>