<svg xmlns="http://www.w3.org/2000/svg" width="75" height="75" viewBox="0 0 75 75" fill="none"><path d="M72 37.5C72 18.4462 56.5538 3 37.5 3C18.4462 3 3 18.4462 3 37.5C3 56.5538 18.4462 72 37.5 72V75C16.7893 75 0 58.2107 0 37.5C0 16.7893 16.7893 0 37.5 0C58.2107 0 75 16.7893 75 37.5C75 58.2107 58.2107 75 37.5 75V72C56.5538 72 72 56.5538 72 37.5Z" fill="white"></path><path d="M49.6622 47.206V52H47.7339V41.0909H49.6195V45.2085H49.7154C49.9072 44.7468 50.2037 44.3828 50.605 44.1165C51.0098 43.8466 51.5247 43.7117 52.1497 43.7117C52.7179 43.7117 53.2133 43.8306 53.6359 44.0686C54.0585 44.3065 54.3852 44.6545 54.616 45.1126C54.8504 45.5707 54.9676 46.13 54.9676 46.7905V52H53.0393V47.0888C53.0393 46.5384 52.8972 46.1105 52.6131 45.8051C52.3326 45.4961 51.9384 45.3417 51.4306 45.3417C51.0897 45.3417 50.7843 45.4162 50.5144 45.5654C50.2481 45.711 50.0386 45.9223 49.8859 46.1993C49.7367 46.4762 49.6622 46.8118 49.6622 47.206Z" fill="white"></path><path d="M46.5035 40.5796L42.9879 53.6407H41.2993L44.8149 40.5796H46.5035Z" fill="white"></path><path d="M28.5884 52V43.8182H30.4314V45.2085H30.5273C30.6978 44.7397 30.9801 44.374 31.3742 44.1112C31.7684 43.8448 32.2389 43.7117 32.7858 43.7117C33.3398 43.7117 33.8068 43.8466 34.1867 44.1165C34.5703 44.3828 34.8402 44.7468 34.9964 45.2085H35.0816C35.2627 44.7539 35.5681 44.3917 35.9978 44.1218C36.4311 43.8484 36.9442 43.7117 37.5372 43.7117C38.2901 43.7117 38.9044 43.9496 39.3803 44.4254C39.8561 44.9013 40.0941 45.5955 40.0941 46.5082V52H38.1605V46.8065C38.1605 46.2987 38.0255 45.9276 37.7556 45.6932C37.4858 45.4553 37.1555 45.3363 36.7649 45.3363C36.2997 45.3363 35.9357 45.4819 35.6729 45.7731C35.4137 46.0607 35.284 46.4354 35.284 46.897V52H33.3931V46.7266C33.3931 46.304 33.2652 45.9666 33.0095 45.7145C32.7574 45.4624 32.4272 45.3363 32.0188 45.3363C31.7418 45.3363 31.4897 45.4073 31.2624 45.5494C31.0351 45.6879 30.854 45.885 30.7191 46.1406C30.5841 46.3928 30.5166 46.6875 30.5166 47.0249V52H28.5884Z" fill="white"></path><path d="M21.8062 49.4326L21.8008 47.1048H22.1098L25.0501 43.8182H27.3033L23.6865 47.8452H23.287L21.8062 49.4326ZM20.0483 52V41.0909H21.9766V52H20.0483ZM25.1833 52L22.5199 48.2767L23.8196 46.9184L27.4897 52H25.1833Z" fill="white"></path><path d="M47.3871 34.2078C46.51 34.2078 45.7571 33.9858 45.1286 33.5419C44.5036 33.0945 44.0224 32.4499 43.685 31.6083C43.3512 30.7632 43.1843 29.7457 43.1843 28.5561C43.1879 27.3665 43.3566 26.3544 43.6904 25.5199C44.0277 24.6818 44.5089 24.0426 45.1339 23.6023C45.7625 23.1619 46.5135 22.9418 47.3871 22.9418C48.2607 22.9418 49.0117 23.1619 49.6403 23.6023C50.2688 24.0426 50.75 24.6818 51.0838 25.5199C51.4212 26.358 51.5899 27.37 51.5899 28.5561C51.5899 29.7493 51.4212 30.7685 51.0838 31.6136C50.75 32.4553 50.2688 33.098 49.6403 33.5419C49.0153 33.9858 48.2642 34.2078 47.3871 34.2078ZM47.3871 32.5405C48.0689 32.5405 48.6069 32.2049 49.0011 31.5337C49.3988 30.859 49.5977 29.8665 49.5977 28.5561C49.5977 27.6896 49.5071 26.9617 49.326 26.3722C49.1449 25.7827 48.8892 25.3388 48.559 25.0405C48.2287 24.7386 47.8381 24.5877 47.3871 24.5877C46.7088 24.5877 46.1726 24.9251 45.7784 25.5998C45.3843 26.271 45.1854 27.2564 45.1818 28.5561C45.1783 29.4261 45.2653 30.1577 45.4429 30.7507C45.624 31.3438 45.8796 31.7912 46.2099 32.0931C46.5401 32.3913 46.9326 32.5405 47.3871 32.5405Z" fill="white"></path><path d="M37.3822 34.2078C36.5051 34.2078 35.7522 33.9858 35.1237 33.5419C34.4987 33.0945 34.0175 32.4499 33.6802 31.6083C33.3463 30.7632 33.1794 29.7457 33.1794 28.5561C33.183 27.3665 33.3517 26.3544 33.6855 25.5199C34.0228 24.6818 34.504 24.0426 35.129 23.6023C35.7576 23.1619 36.5086 22.9418 37.3822 22.9418C38.2558 22.9418 39.0069 23.1619 39.6354 23.6023C40.264 24.0426 40.7451 24.6818 41.0789 25.5199C41.4163 26.358 41.585 27.37 41.585 28.5561C41.585 29.7493 41.4163 30.7685 41.0789 31.6136C40.7451 32.4553 40.264 33.098 39.6354 33.5419C39.0104 33.9858 38.2593 34.2078 37.3822 34.2078ZM37.3822 32.5405C38.064 32.5405 38.602 32.2049 38.9962 31.5337C39.3939 30.859 39.5928 29.8665 39.5928 28.5561C39.5928 27.6896 39.5022 26.9617 39.3211 26.3722C39.14 25.7827 38.8843 25.3388 38.5541 25.0405C38.2238 24.7386 37.8332 24.5877 37.3822 24.5877C36.7039 24.5877 36.1677 24.9251 35.7735 25.5998C35.3794 26.271 35.1805 27.2564 35.177 28.5561C35.1734 29.4261 35.2604 30.1577 35.438 30.7507C35.6191 31.3438 35.8748 31.7912 36.205 32.0931C36.5353 32.3913 36.9277 32.5405 37.3822 32.5405Z" fill="white"></path><path d="M27.4945 34.1492C26.7275 34.1492 26.0456 34.0178 25.449 33.755C24.856 33.4922 24.3873 33.1264 24.0428 32.6577C23.6983 32.1889 23.5154 31.6474 23.4941 31.033H25.497C25.5147 31.3278 25.6124 31.5852 25.79 31.8054C25.9675 32.022 26.2037 32.1907 26.4984 32.3114C26.7931 32.4322 27.1234 32.4926 27.4892 32.4926C27.8798 32.4926 28.226 32.4251 28.5279 32.2901C28.8297 32.1516 29.0659 31.9599 29.2363 31.7149C29.4068 31.4698 29.4902 31.1875 29.4867 30.8679C29.4902 30.5377 29.405 30.2465 29.231 29.9943C29.057 29.7422 28.8049 29.5451 28.4746 29.4031C28.1479 29.261 27.7537 29.19 27.2921 29.19H26.3279V27.6666H27.2921C27.6721 27.6666 28.0041 27.6009 28.2882 27.4695C28.5758 27.3381 28.8013 27.1534 28.9647 26.9155C29.128 26.674 29.2079 26.3953 29.2044 26.0792C29.2079 25.7703 29.1387 25.5021 28.9966 25.2749C28.8581 25.044 28.661 24.8647 28.4054 24.7369C28.1532 24.609 27.8567 24.5451 27.5158 24.5451C27.182 24.5451 26.873 24.6055 26.589 24.7262C26.3049 24.847 26.0758 25.0192 25.9018 25.2429C25.7278 25.4631 25.6355 25.7259 25.6248 26.0313H23.7232C23.7374 25.4205 23.9132 24.8842 24.2505 24.4226C24.5914 23.9574 25.046 23.5952 25.6142 23.3359C26.1824 23.0732 26.8198 22.9418 27.5265 22.9418C28.2544 22.9418 28.8865 23.0785 29.4228 23.3519C29.9625 23.6218 30.3798 23.9858 30.6745 24.4439C30.9693 24.902 31.1167 25.408 31.1167 25.962C31.1202 26.5764 30.9391 27.0913 30.5733 27.5068C30.2111 27.9222 29.7353 28.1939 29.1458 28.3217V28.407C29.9128 28.5135 30.5005 28.7976 30.9089 29.2592C31.3208 29.7173 31.525 30.2873 31.5215 30.9691C31.5215 31.5799 31.3475 32.1268 30.9995 32.6097C30.655 33.0891 30.1792 33.4656 29.5719 33.739C28.9682 34.0124 28.2757 34.1492 27.4945 34.1492Z" fill="white"></path></svg>