<svg xmlns="http://www.w3.org/2000/svg" id="Capa_2" data-name="Capa 2" viewBox="0 0 1080 1080"><defs><style>      .cls-1 {        fill: #0a2d82;      }      .cls-1, .cls-2 {        stroke-width: 0px;      }      .cls-2 {        fill: #fff;      }    </style></defs><g id="Capa_1-2" data-name="Capa 1"><g><circle class="cls-1" cx="540" cy="540" r="540"></circle><path class="cls-2" d="M540.22,1043.75c278.09,0,503.52-225.55,503.52-503.81S818.31,36.15,540.22,36.15,36.7,261.72,36.7,539.94s225.43,503.81,503.52,503.81M961.44,783.27c-2.1,3.68-6.15,5.57-10.13,5.14l-69.2-15.34c-74.48,109.16-199.83,180.85-341.9,180.85s-267.38-71.69-341.88-180.83l-69.09,15.3c-4.01.48-8.11-1.39-10.25-5.11-2.12-3.66-1.73-8.09.64-11.31l47.8-52.27c-26.24-54.33-40.96-115.33-40.96-179.75,0-218.25,168.81-397,382.88-412.8l21.33-67.53c1.56-3.74,5.24-6.3,9.52-6.3s7.9,2.56,9.48,6.22l21.35,67.62c214.09,15.8,382.88,194.55,382.88,412.8,0,64.41-14.7,125.37-40.94,179.75l47.74,52.15c2.45,3.24,2.85,7.76.71,11.44"></path><path class="cls-2" d="M951.72,774.13l-104.02-111.11c-14.49,6.28-31.65,5.82-46.37-2.7-14.68-8.44-23.62-23.04-25.49-38.65l-.04.17c-2.81-23.45-16.22-45.31-38.19-58.05l-42.17-24.37,187.94-108.55-20.71-35.89-208.65,120.53-36.24-20.98v-41.75l208.69-120.53-20.71-35.89-187.98,108.6v-48.67c0-25.47-12.23-48.05-31.15-62.21l.19.06c-12.6-9.42-20.75-24.47-20.75-41.46s8.19-32.08,20.85-41.5l.02-.1-44.16-145.61c-.19-1.14-1.14-2.56-2.56-2.56s-2.6,1.12-2.6,2.56l-44.14,145.71c12.64,9.42,20.83,24.49,20.83,41.5s-8.15,32.04-20.77,41.46l.23-.06c-18.94,14.16-31.19,36.74-31.19,62.21v48.65l-187.92-108.6-20.71,35.91,208.63,120.53v41.85l-36.16,20.87-208.67-120.53-20.69,35.85,188,108.6-42.39,24.51.23-.15c-22.04,12.7-35.47,34.64-38.26,58.07l-.04-.19c-1.89,15.61-10.83,30.21-25.51,38.69-14.72,8.52-31.87,8.96-46.37,2.7l-.12.06-103.92,111.01c-.89.79-1.66,2.35-.94,3.58.69,1.21,2.29,1.64,3.53.89l148.16-34.58c1.85-15.66,10.81-30.31,25.53-38.82,14.66-8.48,31.77-8.94,46.22-2.72l-.1-.17c21.69,9.31,47.32,8.63,69.36-4.08l42.12-24.35v217.17h41.44v-241.06l36.22-20.96,36.18,20.9v241.12h41.36v-217.23l42.19,24.35c22.02,12.77,47.7,13.41,69.38,4.12l-.15.12c14.47-6.18,31.6-5.72,46.26,2.79,14.72,8.46,23.68,23.12,25.51,38.82l.06.08,148.12,34.49c1.08.42,2.81.31,3.51-.89.71-1.23.29-2.83-.96-3.58M540.23,581.2l-36.2-20.87v-41.81l36.18-20.94,36.22,20.94v41.81l-36.2,20.87ZM504.03,356.28c0-19.98,16.2-36.22,36.2-36.22s36.2,16.24,36.2,36.22v72.61l-36.18,20.92-36.22-20.98v-72.54ZM399.78,662.39c-17.3,9.94-39.44,4.01-49.42-13.33-10-17.3-4.08-39.46,13.24-49.46l62.83-36.28,36.16,20.87v41.9l-62.81,36.3ZM730.08,649.07c-9.98,17.34-32.12,23.27-49.44,13.33l-62.85-36.32v-41.79l36.24-20.96,62.81,36.28c17.32,10,23.25,32.16,13.24,49.46M737.52,563.72s.06.02.08.06l.17.08-.25-.15ZM660.2,698.36l-.23-.19h-.02l.25.19ZM420.51,698.24h-.04l-.19.15.23-.15Z"></path></g></g></svg>