<svg xmlns="http://www.w3.org/2000/svg" width="24" height="24" viewBox="0 0 24 24" fill="none"><g clip-path="url(#clip0_2134_1109)"><path d="M22.0572 6.17956C22.0448 5.5316 22.0331 4.91947 22.0331 4.32728C22.0331 3.86335 21.6571 3.48722 21.193 3.48722C17.6004 3.48722 14.865 2.45473 12.585 0.237863C12.2588 -0.0793438 11.7398 -0.0792318 11.4137 0.237863C9.13388 2.45473 6.39898 3.48722 2.80654 3.48722C2.3426 3.48722 1.96648 3.86335 1.96648 4.32728C1.96648 4.91958 1.95483 5.53193 1.9424 6.18001C1.82725 12.2101 1.66955 20.4686 11.7242 23.9537C11.8133 23.9846 11.9063 24.0001 11.9993 24.0001C12.0922 24.0001 12.1853 23.9846 12.2744 23.9537C22.3298 20.4685 22.1723 12.2098 22.0572 6.17956ZM11.9994 22.2685C3.37621 19.136 3.50659 12.2738 3.6223 6.21205C3.62924 5.84824 3.63596 5.49564 3.64067 5.14998C7.00539 5.00796 9.69605 3.98835 11.9994 1.98183C14.303 3.98835 16.9941 5.00807 20.359 5.14998C20.3637 5.49553 20.3704 5.84791 20.3774 6.21149C20.493 12.2735 20.6232 19.1359 11.9994 22.2685Z" fill="white"></path><path d="M14.8921 9.08169L10.8375 13.1361L9.10735 11.4059C8.77928 11.0779 8.24735 11.0779 7.91939 11.4059C7.59132 11.734 7.59132 12.2659 7.91939 12.5939L10.2436 14.9181C10.4075 15.0821 10.6226 15.1641 10.8375 15.1641C11.0525 15.1641 11.2675 15.0821 11.4315 14.9181L16.08 10.2698C16.4082 9.94169 16.4082 9.40976 16.0801 9.0818C15.7521 8.75373 15.2202 8.75362 14.8921 9.08169Z" fill="white"></path></g><defs><clipPath id="clip0_2134_1109"><rect width="24" height="24" fill="white"></rect></clipPath></defs></svg>