<svg xmlns="http://www.w3.org/2000/svg" width="24" height="24" viewBox="0 0 24 24" fill="none"><path d="M23.7113 8.60897L19.4249 2.32097C19.1152 1.86638 18.6018 1.59497 18.0515 1.59497H5.9482C5.39789 1.59497 4.88442 1.86638 4.57481 2.32083L0.287902 8.60958C-0.147473 9.24984 -0.0830664 10.1067 0.44048 10.673L10.7776 21.8692C11.4354 22.5843 12.566 22.5824 13.221 21.8701L23.5588 10.6733C24.063 10.128 24.1636 9.27413 23.7113 8.60897ZM6.52832 10.3384L10.1913 19.161L2.04557 10.3384H6.52832ZM13.0136 3.00122L15.881 8.93213H8.11861L10.9859 3.00122H13.0136ZM15.9487 10.3384L11.9998 19.8496L8.05097 10.3384H15.9487V10.3384ZM17.4713 10.3384H21.954L13.8083 19.161L17.4713 10.3384ZM18.2629 3.11292L22.2297 8.93217H17.443L14.5756 3.00127H18.0515C18.1362 3.00122 18.2152 3.04294 18.2629 3.11292ZM5.73684 3.11278C5.78442 3.04294 5.8634 3.00127 5.94815 3.00127H9.42403L6.55668 8.93217H1.7699L5.73684 3.11278Z" fill="white"></path></svg>